<svg width="24" height="24" viewBox="0 0 24 24" fill="none" xmlns="http://www.w3.org/2000/svg">
<path d="M12.97 4.73999L2.71997 13.39C2.85997 13.32 2.99997 13.27 3.15997 13.24L18.52 10.25C16.68 6.00999 12.97 4.73999 12.97 4.73999Z" stroke="white" stroke-width="2" stroke-miterlimit="10" stroke-linecap="round" stroke-linejoin="round"/>
<path d="M18.82 11.01C18.73 10.75 18.63 10.49 18.52 10.25L3.16002 13.24C3.00002 13.27 2.86002 13.32 2.72002 13.39L2.71002 13.4C2.29002 13.63 2.02002 14.08 2.02002 14.59V18.44H17.38C18.42 18.44 19.26 17.6 19.26 16.56V13.93C19.26 12.94 19.14 11.95 18.82 11.01Z" stroke="white" stroke-width="2" stroke-miterlimit="10" stroke-linecap="round" stroke-linejoin="round"/>
<path d="M21.75 5.79C19.93 3.49 17.93 2.49 16.29 2.08C14.6 1.66 12.97 2.98 12.97 4.72V4.74C12.97 4.74 16.68 6.01 18.52 10.25C18.6 10.42 18.67 10.59 18.73 10.77C18.45 8.85 20.48 7.97 21.33 7.57C21.76 7.37 22 6.94 22 6.5C22 6.26 21.92 6 21.75 5.79Z" stroke="white" stroke-width="2" stroke-miterlimit="10" stroke-linecap="round" stroke-linejoin="round"/>
<path d="M21.33 7.57C20.48 7.97 18.45 8.85 18.73 10.77V10.78C18.77 10.86 18.79 10.93 18.82 11.01C19.14 11.95 19.26 12.94 19.26 13.93V16.56C19.26 17.6 18.42 18.44 17.38 18.44H2.02H2V20.79C2 21.46 2.54 22 3.21 22H18.58C20.47 22 22 20.47 22 18.58V6.5C22 6.94 21.76 7.37 21.33 7.57Z" stroke="white" stroke-width="2" stroke-miterlimit="10" stroke-linecap="round" stroke-linejoin="round"/>
<path d="M10.6201 14.82C11.6901 14.67 11.8501 15.84 12.9201 15.69C13.9901 15.54 13.8301 14.37 14.9001 14.22C15.9701 14.07 16.1301 15.24 17.2101 15.09C18.2801 14.94 18.2001 13.77 19.2701 13.62" stroke="white" stroke-width="2" stroke-miterlimit="10" stroke-linecap="round" stroke-linejoin="round"/>
</svg>
