<svg width="24" height="24" viewBox="0 0 24 24" fill="none" xmlns="http://www.w3.org/2000/svg">
<path d="M16 10.9282L20 3.99999" stroke="white" stroke-width="2" stroke-linecap="round" stroke-linejoin="round"/>
<path d="M5 11C5 9.5375 6 9.5375 6 7.9625C6 6.5 5 6.5 5 5.0375C5 3.575 6 3.4625 6 2" stroke="white" stroke-width="2" stroke-miterlimit="10" stroke-linecap="round" stroke-linejoin="round"/>
<path d="M8 11C8 9.5375 9 9.5375 9 7.9625C9 6.5 8 6.5 8 5.0375C8 3.575 9 3.4625 9 2" stroke="white" stroke-width="2" stroke-miterlimit="10" stroke-linecap="round" stroke-linejoin="round"/>
<path d="M2 11H22V13C22 16.866 18.866 20 15 20V22H9V20C5.13401 20 2 16.866 2 13V11Z" stroke="white" stroke-width="2" stroke-linecap="round" stroke-linejoin="round"/>
</svg>
