<svg width="24" height="24" viewBox="0 0 24 24" fill="none" xmlns="http://www.w3.org/2000/svg">
<path d="M20.59 8.47C19.7 8.68 18.15 9 16.58 9.12C17.65 10.84 17.66 12.71 17.66 12.78C17.66 12.78 14.63 11.83 12.58 10.31C12.26 12.34 10.89 14.28 10.89 14.28C10.89 14.28 9.08003 12.19 8.51003 9.8C8.46003 9.56 8.42003 9.32 8.41003 9.11C6.66003 9.62 4.48003 9.81 3.33003 9.88C2.95003 10.74 2.53003 12.08 2.53003 12.92C2.53003 24.95 22.53 25.06 22.53 13.04C22.53 11.42 21.78 9.77 20.59 8.47Z" stroke="white" stroke-width="2" stroke-miterlimit="10" stroke-linecap="round"/>
<path d="M10.2 2C11.06 3.44 10.91 5.23 10.87 5.55" stroke="white" stroke-width="2" stroke-miterlimit="10" stroke-linecap="round"/>
<path d="M21.34 8.28999C21.34 8.28999 17.83 3.26999 10.81 5.55999C5.26003 3.44999 2.53003 9.91999 2.53003 9.91999C2.53003 9.91999 5.90003 9.82999 8.41003 9.09999C8.42003 9.31999 8.46003 9.54999 8.51003 9.78999C9.07003 12.18 10.89 14.27 10.89 14.27C10.89 14.27 12.26 12.33 12.58 10.3C14.63 11.82 17.66 12.77 17.66 12.77C17.66 12.77 17.68 10.86 16.59 9.10999C18.98 8.92999 21.34 8.28999 21.34 8.28999Z" stroke="white" stroke-width="2" stroke-miterlimit="10" stroke-linecap="round"/>
</svg>
